<?xml version="1.0" encoding="UTF-8" standalone="no"?>
<!DOCTYPE svg PUBLIC "-//W3C//DTD SVG 1.1//EN"
 "http://www.w3.org/Graphics/SVG/1.1/DTD/svg11.dtd">
<!-- Generated by graphviz version 11.0.0 (20240428.1522)
 -->
<!-- Title: G Pages: 1 -->
<svg width="524pt" height="672pt"
 viewBox="0.00 0.00 524.00 671.75" xmlns="http://www.w3.org/2000/svg" xmlns:xlink="http://www.w3.org/1999/xlink">
<g id="graph0" class="graph" transform="scale(1 1) rotate(0) translate(36 635.75)">
<title>G</title>
<polygon fill="white" stroke="none" points="-36,36 -36,-635.75 488,-635.75 488,36 -36,36"/>
<text text-anchor="middle" x="226" y="-6.45" font-family="Times New Roman,serif" font-size="14.00">Matriz Dispersa</text>
<!-- Fila1 -->
<g id="node1" class="node">
<title>Fila1</title>
<polygon fill="white" stroke="black" points="54,-470.15 0,-470.15 0,-412.55 54,-412.55 54,-470.15"/>
<text text-anchor="middle" x="27" y="-435.93" font-family="Times New Roman,serif" font-size="14.00">1</text>
</g>
<!-- Fila3 -->
<g id="node2" class="node">
<title>Fila3</title>
<polygon fill="white" stroke="black" points="54,-340.55 0,-340.55 0,-282.95 54,-282.95 54,-340.55"/>
<text text-anchor="middle" x="27" y="-306.32" font-family="Times New Roman,serif" font-size="14.00">3</text>
</g>
<!-- Fila1&#45;&gt;Fila3 -->
<g id="edge1" class="edge">
<title>Fila1&#45;&gt;Fila3</title>
<path fill="none" stroke="black" d="M27,-401.04C27,-385.48 27,-367.62 27,-352.06"/>
<polygon fill="black" stroke="black" points="23.5,-400.83 27,-410.83 30.5,-400.83 23.5,-400.83"/>
<polygon fill="black" stroke="black" points="30.5,-352.2 27,-342.2 23.5,-352.2 30.5,-352.2"/>
</g>
<!-- NodoF1_C1 -->
<g id="node6" class="node">
<title>NodoF1_C1</title>
<polygon fill="lightgrey" stroke="black" points="180,-470.15 126,-470.15 126,-412.55 180,-412.55 180,-470.15"/>
<text text-anchor="middle" x="153" y="-435.93" font-family="Times New Roman,serif" font-size="14.00">*</text>
</g>
<!-- Fila1&#45;&gt;NodoF1_C1 -->
<g id="edge12" class="edge">
<title>Fila1&#45;&gt;NodoF1_C1</title>
<path fill="none" stroke="black" d="M54.07,-441.35C74.08,-441.35 94.1,-441.35 114.11,-441.35"/>
<polygon fill="black" stroke="black" points="114.05,-444.85 124.05,-441.35 114.05,-437.85 114.05,-444.85"/>
</g>
<!-- Fila4 -->
<g id="node3" class="node">
<title>Fila4</title>
<polygon fill="white" stroke="black" points="54,-210.95 0,-210.95 0,-153.35 54,-153.35 54,-210.95"/>
<text text-anchor="middle" x="27" y="-176.72" font-family="Times New Roman,serif" font-size="14.00">4</text>
</g>
<!-- Fila3&#45;&gt;Fila4 -->
<g id="edge2" class="edge">
<title>Fila3&#45;&gt;Fila4</title>
<path fill="none" stroke="black" d="M27,-271.44C27,-255.88 27,-238.02 27,-222.46"/>
<polygon fill="black" stroke="black" points="23.5,-271.23 27,-281.23 30.5,-271.23 23.5,-271.23"/>
<polygon fill="black" stroke="black" points="30.5,-222.6 27,-212.6 23.5,-222.6 30.5,-222.6"/>
</g>
<!-- NodoF3_C1 -->
<g id="node7" class="node">
<title>NodoF3_C1</title>
<polygon fill="lightgrey" stroke="black" points="180,-340.55 126,-340.55 126,-282.95 180,-282.95 180,-340.55"/>
<text text-anchor="middle" x="153" y="-306.32" font-family="Times New Roman,serif" font-size="14.00">*</text>
</g>
<!-- Fila3&#45;&gt;NodoF3_C1 -->
<g id="edge14" class="edge">
<title>Fila3&#45;&gt;NodoF3_C1</title>
<path fill="none" stroke="black" d="M54.07,-311.75C74.08,-311.75 94.1,-311.75 114.11,-311.75"/>
<polygon fill="black" stroke="black" points="114.05,-315.25 124.05,-311.75 114.05,-308.25 114.05,-315.25"/>
</g>
<!-- Fila5 -->
<g id="node4" class="node">
<title>Fila5</title>
<polygon fill="white" stroke="black" points="54,-81.35 0,-81.35 0,-23.75 54,-23.75 54,-81.35"/>
<text text-anchor="middle" x="27" y="-47.12" font-family="Times New Roman,serif" font-size="14.00">5</text>
</g>
<!-- Fila4&#45;&gt;Fila5 -->
<g id="edge3" class="edge">
<title>Fila4&#45;&gt;Fila5</title>
<path fill="none" stroke="black" d="M27,-141.84C27,-126.28 27,-108.42 27,-92.86"/>
<polygon fill="black" stroke="black" points="23.5,-141.63 27,-151.63 30.5,-141.63 23.5,-141.63"/>
<polygon fill="black" stroke="black" points="30.5,-93 27,-83 23.5,-93 30.5,-93"/>
</g>
<!-- NodoF4_C1 -->
<g id="node8" class="node">
<title>NodoF4_C1</title>
<polygon fill="lightgrey" stroke="black" points="180,-210.95 126,-210.95 126,-153.35 180,-153.35 180,-210.95"/>
<text text-anchor="middle" x="153" y="-176.72" font-family="Times New Roman,serif" font-size="14.00">*</text>
</g>
<!-- Fila4&#45;&gt;NodoF4_C1 -->
<g id="edge16" class="edge">
<title>Fila4&#45;&gt;NodoF4_C1</title>
<path fill="none" stroke="black" d="M54.07,-182.15C74.08,-182.15 94.1,-182.15 114.11,-182.15"/>
<polygon fill="black" stroke="black" points="114.05,-185.65 124.05,-182.15 114.05,-178.65 114.05,-185.65"/>
</g>
<!-- NodoF5_C6 -->
<g id="node13" class="node">
<title>NodoF5_C6</title>
<polygon fill="lightgrey" stroke="black" points="452,-81.35 398,-81.35 398,-23.75 452,-23.75 452,-81.35"/>
<text text-anchor="middle" x="425" y="-47.12" font-family="Times New Roman,serif" font-size="14.00">*</text>
</g>
<!-- Fila5&#45;&gt;NodoF5_C6 -->
<g id="edge17" class="edge">
<title>Fila5&#45;&gt;NodoF5_C6</title>
<path fill="none" stroke="black" d="M54.21,-52.55C164.95,-52.55 275.69,-52.55 386.43,-52.55"/>
<polygon fill="black" stroke="black" points="386.33,-56.05 396.33,-52.55 386.33,-49.05 386.33,-56.05"/>
</g>
<!-- Columna1 -->
<g id="node5" class="node">
<title>Columna1</title>
<polygon fill="white" stroke="black" points="180,-599.75 126,-599.75 126,-542.15 180,-542.15 180,-599.75"/>
<text text-anchor="middle" x="153" y="-565.53" font-family="Times New Roman,serif" font-size="14.00">1</text>
</g>
<!-- Columna1&#45;&gt;NodoF1_C1 -->
<g id="edge4" class="edge">
<title>Columna1&#45;&gt;NodoF1_C1</title>
<path fill="none" stroke="black" d="M153,-541.95C153,-524.25 153,-501.11 153,-481.59"/>
<polygon fill="black" stroke="black" points="156.5,-481.8 153,-471.8 149.5,-481.8 156.5,-481.8"/>
</g>
<!-- Columna2 -->
<g id="node9" class="node">
<title>Columna2</title>
<polygon fill="white" stroke="black" points="316,-599.75 262,-599.75 262,-542.15 316,-542.15 316,-599.75"/>
<text text-anchor="middle" x="289" y="-565.53" font-family="Times New Roman,serif" font-size="14.00">2</text>
</g>
<!-- Columna1&#45;&gt;Columna2 -->
<g id="edge10" class="edge">
<title>Columna1&#45;&gt;Columna2</title>
<path fill="none" stroke="black" d="M191.82,-570.95C211.33,-570.95 230.84,-570.95 250.35,-570.95"/>
<polygon fill="black" stroke="black" points="191.87,-567.45 181.87,-570.95 191.87,-574.45 191.87,-567.45"/>
<polygon fill="black" stroke="black" points="250.33,-574.45 260.33,-570.95 250.33,-567.45 250.33,-574.45"/>
</g>
<!-- NodoF1_C1&#45;&gt;NodoF3_C1 -->
<g id="edge5" class="edge">
<title>NodoF1_C1&#45;&gt;NodoF3_C1</title>
<path fill="none" stroke="black" d="M153,-401.04C153,-385.48 153,-367.62 153,-352.06"/>
<polygon fill="black" stroke="black" points="149.5,-400.83 153,-410.83 156.5,-400.83 149.5,-400.83"/>
<polygon fill="black" stroke="black" points="156.5,-352.2 153,-342.2 149.5,-352.2 156.5,-352.2"/>
</g>
<!-- NodoF1_C6 -->
<g id="node12" class="node">
<title>NodoF1_C6</title>
<polygon fill="lightgrey" stroke="black" points="452,-470.15 398,-470.15 398,-412.55 452,-412.55 452,-470.15"/>
<text text-anchor="middle" x="425" y="-435.93" font-family="Times New Roman,serif" font-size="14.00">*</text>
</g>
<!-- NodoF1_C1&#45;&gt;NodoF1_C6 -->
<g id="edge13" class="edge">
<title>NodoF1_C1&#45;&gt;NodoF1_C6</title>
<path fill="none" stroke="black" d="M191.82,-441.35C256.72,-441.35 321.61,-441.35 386.5,-441.35"/>
<polygon fill="black" stroke="black" points="191.87,-437.85 181.87,-441.35 191.87,-444.85 191.87,-437.85"/>
<polygon fill="black" stroke="black" points="386.25,-444.85 396.25,-441.35 386.25,-437.85 386.25,-444.85"/>
</g>
<!-- NodoF3_C1&#45;&gt;NodoF4_C1 -->
<g id="edge6" class="edge">
<title>NodoF3_C1&#45;&gt;NodoF4_C1</title>
<path fill="none" stroke="black" d="M153,-271.44C153,-255.88 153,-238.02 153,-222.46"/>
<polygon fill="black" stroke="black" points="149.5,-271.23 153,-281.23 156.5,-271.23 149.5,-271.23"/>
<polygon fill="black" stroke="black" points="156.5,-222.6 153,-212.6 149.5,-222.6 156.5,-222.6"/>
</g>
<!-- NodoF3_C2 -->
<g id="node10" class="node">
<title>NodoF3_C2</title>
<polygon fill="lightgrey" stroke="black" points="316,-340.55 262,-340.55 262,-282.95 316,-282.95 316,-340.55"/>
<text text-anchor="middle" x="289" y="-306.32" font-family="Times New Roman,serif" font-size="14.00">*</text>
</g>
<!-- NodoF3_C1&#45;&gt;NodoF3_C2 -->
<g id="edge15" class="edge">
<title>NodoF3_C1&#45;&gt;NodoF3_C2</title>
<path fill="none" stroke="black" d="M191.82,-311.75C211.33,-311.75 230.84,-311.75 250.35,-311.75"/>
<polygon fill="black" stroke="black" points="191.87,-308.25 181.87,-311.75 191.87,-315.25 191.87,-308.25"/>
<polygon fill="black" stroke="black" points="250.33,-315.25 260.33,-311.75 250.33,-308.25 250.33,-315.25"/>
</g>
<!-- Columna2&#45;&gt;NodoF3_C2 -->
<g id="edge7" class="edge">
<title>Columna2&#45;&gt;NodoF3_C2</title>
<path fill="none" stroke="black" d="M289,-541.94C289,-496.04 289,-404.69 289,-352.24"/>
<polygon fill="black" stroke="black" points="292.5,-352.24 289,-342.24 285.5,-352.24 292.5,-352.24"/>
</g>
<!-- Columna6 -->
<g id="node11" class="node">
<title>Columna6</title>
<polygon fill="white" stroke="black" points="452,-599.75 398,-599.75 398,-542.15 452,-542.15 452,-599.75"/>
<text text-anchor="middle" x="425" y="-565.53" font-family="Times New Roman,serif" font-size="14.00">6</text>
</g>
<!-- Columna2&#45;&gt;Columna6 -->
<g id="edge11" class="edge">
<title>Columna2&#45;&gt;Columna6</title>
<path fill="none" stroke="black" d="M327.82,-570.95C347.33,-570.95 366.84,-570.95 386.35,-570.95"/>
<polygon fill="black" stroke="black" points="327.87,-567.45 317.87,-570.95 327.87,-574.45 327.87,-567.45"/>
<polygon fill="black" stroke="black" points="386.33,-574.45 396.33,-570.95 386.33,-567.45 386.33,-574.45"/>
</g>
<!-- Columna6&#45;&gt;NodoF1_C6 -->
<g id="edge8" class="edge">
<title>Columna6&#45;&gt;NodoF1_C6</title>
<path fill="none" stroke="black" d="M425,-541.95C425,-524.25 425,-501.11 425,-481.59"/>
<polygon fill="black" stroke="black" points="428.5,-481.8 425,-471.8 421.5,-481.8 428.5,-481.8"/>
</g>
<!-- NodoF1_C6&#45;&gt;NodoF5_C6 -->
<g id="edge9" class="edge">
<title>NodoF1_C6&#45;&gt;NodoF5_C6</title>
<path fill="none" stroke="black" d="M425,-400.96C425,-326.79 425,-167.19 425,-92.99"/>
<polygon fill="black" stroke="black" points="421.5,-400.71 425,-410.71 428.5,-400.71 421.5,-400.71"/>
<polygon fill="black" stroke="black" points="428.5,-93.35 425,-83.35 421.5,-93.35 428.5,-93.35"/>
</g>
</g>
</svg>
