<?xml version="1.0" encoding="UTF-8" standalone="no"?>
<!DOCTYPE svg PUBLIC "-//W3C//DTD SVG 1.1//EN"
 "http://www.w3.org/Graphics/SVG/1.1/DTD/svg11.dtd">
<!-- Generated by graphviz version 11.0.0 (20240428.1522)
 -->
<!-- Title: G Pages: 1 -->
<svg width="512pt" height="68pt"
 viewBox="0.00 0.00 512.00 67.75" xmlns="http://www.w3.org/2000/svg" xmlns:xlink="http://www.w3.org/1999/xlink">
<g id="graph0" class="graph" transform="scale(1 1) rotate(0) translate(4 63.75)">
<title>G</title>
<polygon fill="white" stroke="none" points="-4,4 -4,-63.75 508,-63.75 508,4 -4,4"/>
<text text-anchor="middle" x="252" y="-6.45" font-family="Times New Roman,serif" font-size="14.00">Cola</text>
<!-- Nodo0 -->
<g id="node1" class="node">
<title>Nodo0</title>
<polygon fill="green" stroke="black" points="54,-59.75 0,-59.75 0,-23.75 54,-23.75 54,-59.75"/>
<text text-anchor="middle" x="27" y="-36.33" font-family="Times New Roman,serif" font-size="14.00">2</text>
</g>
<!-- Nodo1 -->
<g id="node2" class="node">
<title>Nodo1</title>
<polygon fill="green" stroke="black" points="144,-59.75 90,-59.75 90,-23.75 144,-23.75 144,-59.75"/>
<text text-anchor="middle" x="117" y="-36.33" font-family="Times New Roman,serif" font-size="14.00">3</text>
</g>
<!-- Nodo1&#45;&gt;Nodo0 -->
<g id="edge1" class="edge">
<title>Nodo1&#45;&gt;Nodo0</title>
<path fill="none" stroke="black" d="M89.6,-41.75C82.11,-41.75 73.82,-41.75 65.8,-41.75"/>
<polygon fill="black" stroke="black" points="65.9,-38.25 55.9,-41.75 65.9,-45.25 65.9,-38.25"/>
</g>
<!-- Nodo2 -->
<g id="node3" class="node">
<title>Nodo2</title>
<polygon fill="green" stroke="black" points="234,-59.75 180,-59.75 180,-23.75 234,-23.75 234,-59.75"/>
<text text-anchor="middle" x="207" y="-36.33" font-family="Times New Roman,serif" font-size="14.00">4</text>
</g>
<!-- Nodo2&#45;&gt;Nodo1 -->
<g id="edge2" class="edge">
<title>Nodo2&#45;&gt;Nodo1</title>
<path fill="none" stroke="black" d="M179.6,-41.75C172.11,-41.75 163.82,-41.75 155.8,-41.75"/>
<polygon fill="black" stroke="black" points="155.9,-38.25 145.9,-41.75 155.9,-45.25 155.9,-38.25"/>
</g>
<!-- Nodo3 -->
<g id="node4" class="node">
<title>Nodo3</title>
<polygon fill="green" stroke="black" points="324,-59.75 270,-59.75 270,-23.75 324,-23.75 324,-59.75"/>
<text text-anchor="middle" x="297" y="-36.33" font-family="Times New Roman,serif" font-size="14.00">5</text>
</g>
<!-- Nodo3&#45;&gt;Nodo2 -->
<g id="edge3" class="edge">
<title>Nodo3&#45;&gt;Nodo2</title>
<path fill="none" stroke="black" d="M269.6,-41.75C262.11,-41.75 253.82,-41.75 245.8,-41.75"/>
<polygon fill="black" stroke="black" points="245.9,-38.25 235.9,-41.75 245.9,-45.25 245.9,-38.25"/>
</g>
<!-- Nodo4 -->
<g id="node5" class="node">
<title>Nodo4</title>
<polygon fill="green" stroke="black" points="414,-59.75 360,-59.75 360,-23.75 414,-23.75 414,-59.75"/>
<text text-anchor="middle" x="387" y="-36.33" font-family="Times New Roman,serif" font-size="14.00">6</text>
</g>
<!-- Nodo4&#45;&gt;Nodo3 -->
<g id="edge4" class="edge">
<title>Nodo4&#45;&gt;Nodo3</title>
<path fill="none" stroke="black" d="M359.6,-41.75C352.11,-41.75 343.82,-41.75 335.8,-41.75"/>
<polygon fill="black" stroke="black" points="335.9,-38.25 325.9,-41.75 335.9,-45.25 335.9,-38.25"/>
</g>
<!-- Nodo5 -->
<g id="node6" class="node">
<title>Nodo5</title>
<polygon fill="green" stroke="black" points="504,-59.75 450,-59.75 450,-23.75 504,-23.75 504,-59.75"/>
<text text-anchor="middle" x="477" y="-36.33" font-family="Times New Roman,serif" font-size="14.00">7</text>
</g>
<!-- Nodo5&#45;&gt;Nodo4 -->
<g id="edge5" class="edge">
<title>Nodo5&#45;&gt;Nodo4</title>
<path fill="none" stroke="black" d="M449.6,-41.75C442.11,-41.75 433.82,-41.75 425.8,-41.75"/>
<polygon fill="black" stroke="black" points="425.9,-38.25 415.9,-41.75 425.9,-45.25 425.9,-38.25"/>
</g>
</g>
</svg>
