<?xml version="1.0" encoding="UTF-8" standalone="no"?>
<!DOCTYPE svg PUBLIC "-//W3C//DTD SVG 1.1//EN"
 "http://www.w3.org/Graphics/SVG/1.1/DTD/svg11.dtd">
<!-- Generated by graphviz version 11.0.0 (20240428.1522)
 -->
<!-- Title: G Pages: 1 -->
<svg width="82pt" height="120pt"
 viewBox="0.00 0.00 82.25 119.75" xmlns="http://www.w3.org/2000/svg" xmlns:xlink="http://www.w3.org/1999/xlink">
<g id="graph0" class="graph" transform="scale(1 1) rotate(0) translate(4 115.75)">
<title>G</title>
<polygon fill="white" stroke="none" points="-4,4 -4,-115.75 78.25,-115.75 78.25,4 -4,4"/>
<!-- Nodo -->
<g id="node1" class="node">
<title>Nodo</title>
<path fill="none" stroke="black" d="M32.25,-16.25C32.25,-16.25 62.25,-16.25 62.25,-16.25 68.25,-16.25 74.25,-22.25 74.25,-28.25 74.25,-28.25 74.25,-99.25 74.25,-99.25 74.25,-105.25 68.25,-111.25 62.25,-111.25 62.25,-111.25 32.25,-111.25 32.25,-111.25 26.25,-111.25 20.25,-105.25 20.25,-99.25 20.25,-99.25 20.25,-28.25 20.25,-28.25 20.25,-22.25 26.25,-16.25 32.25,-16.25"/>
<text text-anchor="middle" x="47.25" y="-93.95" font-family="Times New Roman,serif" font-size="14.00">5698</text>
<polyline fill="none" stroke="black" points="20.25,-87.5 74.25,-87.5"/>
<text text-anchor="middle" x="47.25" y="-70.2" font-family="Times New Roman,serif" font-size="14.00">52</text>
<polyline fill="none" stroke="black" points="20.25,-63.75 74.25,-63.75"/>
<text text-anchor="middle" x="47.25" y="-46.45" font-family="Times New Roman,serif" font-size="14.00">2</text>
<polyline fill="none" stroke="black" points="20.25,-40 74.25,-40"/>
<text text-anchor="middle" x="47.25" y="-22.7" font-family="Times New Roman,serif" font-size="14.00">1</text>
<text text-anchor="middle" x="10.12" y="-2.45" font-family="Times New Roman,serif" font-size="14.00">Pila</text>
</g>
</g>
</svg>
