<?xml version="1.0" encoding="UTF-8" standalone="no"?>
<!DOCTYPE svg PUBLIC "-//W3C//DTD SVG 1.1//EN"
 "http://www.w3.org/Graphics/SVG/1.1/DTD/svg11.dtd">
<!-- Generated by graphviz version 11.0.0 (20240428.1522)
 -->
<!-- Title: G Pages: 1 -->
<svg width="958pt" height="851pt"
 viewBox="0.00 0.00 957.50 851.35" xmlns="http://www.w3.org/2000/svg" xmlns:xlink="http://www.w3.org/1999/xlink">
<g id="graph0" class="graph" transform="scale(1 1) rotate(0) translate(36 815.35)">
<title>G</title>
<polygon fill="white" stroke="none" points="-36,36 -36,-815.35 921.5,-815.35 921.5,36 -36,36"/>
<text text-anchor="middle" x="442.75" y="-6.45" font-family="Times New Roman,serif" font-size="14.00">Matriz Dispersa</text>
<!-- Fila1 -->
<g id="node1" class="node">
<title>Fila1</title>
<polygon fill="white" stroke="black" points="54,-627.3 0,-627.3 0,-569.7 54,-569.7 54,-627.3"/>
<text text-anchor="middle" x="27" y="-593.08" font-family="Times New Roman,serif" font-size="14.00">1</text>
</g>
<!-- Fila7 -->
<g id="node2" class="node">
<title>Fila7</title>
<polygon fill="white" stroke="black" points="54,-452.8 0,-452.8 0,-395.2 54,-395.2 54,-452.8"/>
<text text-anchor="middle" x="27" y="-418.57" font-family="Times New Roman,serif" font-size="14.00">7</text>
</g>
<!-- Fila1&#45;&gt;Fila7 -->
<g id="edge1" class="edge">
<title>Fila1&#45;&gt;Fila7</title>
<path fill="none" stroke="black" d="M27,-558.21C27,-530.16 27,-492.58 27,-464.49"/>
<polygon fill="black" stroke="black" points="23.5,-557.89 27,-567.89 30.5,-557.89 23.5,-557.89"/>
<polygon fill="black" stroke="black" points="30.5,-464.6 27,-454.6 23.5,-464.6 30.5,-464.6"/>
</g>
<!-- NodoF1_C1 -->
<g id="node6" class="node">
<title>NodoF1_C1</title>
<polygon fill="lightgrey" stroke="black" points="398.88,-649.75 181.12,-649.75 181.12,-547.25 398.88,-547.25 398.88,-649.75"/>
<text text-anchor="middle" x="290" y="-632.45" font-family="Times New Roman,serif" font-size="14.00">ID: 4</text>
<text text-anchor="middle" x="290" y="-616.7" font-family="Times New Roman,serif" font-size="14.00">Descripción: Leyendo nuevos libros</text>
<text text-anchor="middle" x="290" y="-600.95" font-family="Times New Roman,serif" font-size="14.00">Libro: La Colmena</text>
<text text-anchor="middle" x="290" y="-585.2" font-family="Times New Roman,serif" font-size="14.00">Usuario: Usuario4</text>
<text text-anchor="middle" x="290" y="-569.45" font-family="Times New Roman,serif" font-size="14.00">Día: 1</text>
<text text-anchor="middle" x="290" y="-553.7" font-family="Times New Roman,serif" font-size="14.00">Hora: 1:00</text>
</g>
<!-- Fila1&#45;&gt;NodoF1_C1 -->
<g id="edge10" class="edge">
<title>Fila1&#45;&gt;NodoF1_C1</title>
<path fill="none" stroke="black" d="M54.48,-598.5C92.86,-598.5 131.24,-598.5 169.62,-598.5"/>
<polygon fill="black" stroke="black" points="169.47,-602 179.47,-598.5 169.47,-595 169.47,-602"/>
</g>
<!-- Fila14 -->
<g id="node3" class="node">
<title>Fila14</title>
<polygon fill="white" stroke="black" points="54,-278.3 0,-278.3 0,-220.7 54,-220.7 54,-278.3"/>
<text text-anchor="middle" x="27" y="-244.07" font-family="Times New Roman,serif" font-size="14.00">14</text>
</g>
<!-- Fila7&#45;&gt;Fila14 -->
<g id="edge2" class="edge">
<title>Fila7&#45;&gt;Fila14</title>
<path fill="none" stroke="black" d="M27,-383.71C27,-355.66 27,-318.08 27,-289.99"/>
<polygon fill="black" stroke="black" points="23.5,-383.39 27,-393.39 30.5,-383.39 23.5,-383.39"/>
<polygon fill="black" stroke="black" points="30.5,-290.1 27,-280.1 23.5,-290.1 30.5,-290.1"/>
</g>
<!-- NodoF7_C1 -->
<g id="node7" class="node">
<title>NodoF7_C1</title>
<polygon fill="lightgrey" stroke="black" points="453.62,-475.25 126.38,-475.25 126.38,-372.75 453.62,-372.75 453.62,-475.25"/>
<text text-anchor="middle" x="290" y="-457.95" font-family="Times New Roman,serif" font-size="14.00">ID: 2</text>
<text text-anchor="middle" x="290" y="-442.2" font-family="Times New Roman,serif" font-size="14.00">Descripción: Para su tarea de Comunicación y Lenguaje</text>
<text text-anchor="middle" x="290" y="-426.45" font-family="Times New Roman,serif" font-size="14.00">Libro: La Celestina</text>
<text text-anchor="middle" x="290" y="-410.7" font-family="Times New Roman,serif" font-size="14.00">Usuario: Usuario2</text>
<text text-anchor="middle" x="290" y="-394.95" font-family="Times New Roman,serif" font-size="14.00">Día: 1</text>
<text text-anchor="middle" x="290" y="-379.2" font-family="Times New Roman,serif" font-size="14.00">Hora: 7:00</text>
</g>
<!-- Fila7&#45;&gt;NodoF7_C1 -->
<g id="edge11" class="edge">
<title>Fila7&#45;&gt;NodoF7_C1</title>
<path fill="none" stroke="black" d="M54.48,-424C74.57,-424 94.66,-424 114.75,-424"/>
<polygon fill="black" stroke="black" points="114.73,-427.5 124.73,-424 114.73,-420.5 114.73,-427.5"/>
</g>
<!-- Fila15 -->
<g id="node4" class="node">
<title>Fila15</title>
<polygon fill="white" stroke="black" points="54,-103.8 0,-103.8 0,-46.2 54,-46.2 54,-103.8"/>
<text text-anchor="middle" x="27" y="-69.58" font-family="Times New Roman,serif" font-size="14.00">15</text>
</g>
<!-- Fila14&#45;&gt;Fila15 -->
<g id="edge3" class="edge">
<title>Fila14&#45;&gt;Fila15</title>
<path fill="none" stroke="black" d="M27,-209.21C27,-181.16 27,-143.58 27,-115.49"/>
<polygon fill="black" stroke="black" points="23.5,-208.89 27,-218.89 30.5,-208.89 23.5,-208.89"/>
<polygon fill="black" stroke="black" points="30.5,-115.6 27,-105.6 23.5,-115.6 30.5,-115.6"/>
</g>
<!-- NodoF14_C2 -->
<g id="node9" class="node">
<title>NodoF14_C2</title>
<polygon fill="lightgrey" stroke="black" points="659.12,-300.75 466.88,-300.75 466.88,-198.25 659.12,-198.25 659.12,-300.75"/>
<text text-anchor="middle" x="563" y="-283.45" font-family="Times New Roman,serif" font-size="14.00">ID: 1</text>
<text text-anchor="middle" x="563" y="-267.7" font-family="Times New Roman,serif" font-size="14.00">Descripción: Le encanta el libro</text>
<text text-anchor="middle" x="563" y="-251.95" font-family="Times New Roman,serif" font-size="14.00">Libro: El Quijote</text>
<text text-anchor="middle" x="563" y="-236.2" font-family="Times New Roman,serif" font-size="14.00">Usuario: Usuario1</text>
<text text-anchor="middle" x="563" y="-220.45" font-family="Times New Roman,serif" font-size="14.00">Día: 2</text>
<text text-anchor="middle" x="563" y="-204.7" font-family="Times New Roman,serif" font-size="14.00">Hora: 14:00</text>
</g>
<!-- Fila14&#45;&gt;NodoF14_C2 -->
<g id="edge12" class="edge">
<title>Fila14&#45;&gt;NodoF14_C2</title>
<path fill="none" stroke="black" d="M54.48,-249.5C188.12,-249.5 321.75,-249.5 455.39,-249.5"/>
<polygon fill="black" stroke="black" points="455.15,-253 465.15,-249.5 455.15,-246 455.15,-253"/>
</g>
<!-- NodoF15_C3 -->
<g id="node11" class="node">
<title>NodoF15_C3</title>
<polygon fill="lightgrey" stroke="black" points="885.5,-126.25 650.5,-126.25 650.5,-23.75 885.5,-23.75 885.5,-126.25"/>
<text text-anchor="middle" x="768" y="-108.95" font-family="Times New Roman,serif" font-size="14.00">ID: 3</text>
<text text-anchor="middle" x="768" y="-93.2" font-family="Times New Roman,serif" font-size="14.00">Descripción: Para su tarea de Literatura</text>
<text text-anchor="middle" x="768" y="-77.45" font-family="Times New Roman,serif" font-size="14.00">Libro: La Regenta</text>
<text text-anchor="middle" x="768" y="-61.7" font-family="Times New Roman,serif" font-size="14.00">Usuario: Usuario3</text>
<text text-anchor="middle" x="768" y="-45.95" font-family="Times New Roman,serif" font-size="14.00">Día: 3</text>
<text text-anchor="middle" x="768" y="-30.2" font-family="Times New Roman,serif" font-size="14.00">Hora: 15:00</text>
</g>
<!-- Fila15&#45;&gt;NodoF15_C3 -->
<g id="edge13" class="edge">
<title>Fila15&#45;&gt;NodoF15_C3</title>
<path fill="none" stroke="black" d="M54.5,-75C249.3,-75 444.1,-75 638.9,-75"/>
<polygon fill="black" stroke="black" points="638.73,-78.5 648.73,-75 638.73,-71.5 638.73,-78.5"/>
</g>
<!-- Columna1 -->
<g id="node5" class="node">
<title>Columna1</title>
<polygon fill="white" stroke="black" points="317,-779.35 263,-779.35 263,-721.75 317,-721.75 317,-779.35"/>
<text text-anchor="middle" x="290" y="-745.12" font-family="Times New Roman,serif" font-size="14.00">1</text>
</g>
<!-- Columna1&#45;&gt;NodoF1_C1 -->
<g id="edge4" class="edge">
<title>Columna1&#45;&gt;NodoF1_C1</title>
<path fill="none" stroke="black" d="M290,-721.33C290,-704.42 290,-682.24 290,-661.44"/>
<polygon fill="black" stroke="black" points="293.5,-661.58 290,-651.58 286.5,-661.58 293.5,-661.58"/>
</g>
<!-- Columna2 -->
<g id="node8" class="node">
<title>Columna2</title>
<polygon fill="white" stroke="black" points="590,-779.35 536,-779.35 536,-721.75 590,-721.75 590,-779.35"/>
<text text-anchor="middle" x="563" y="-745.12" font-family="Times New Roman,serif" font-size="14.00">2</text>
</g>
<!-- Columna1&#45;&gt;Columna2 -->
<g id="edge8" class="edge">
<title>Columna1&#45;&gt;Columna2</title>
<path fill="none" stroke="black" d="M328.97,-750.55C394.1,-750.55 459.23,-750.55 524.36,-750.55"/>
<polygon fill="black" stroke="black" points="328.97,-747.05 318.97,-750.55 328.97,-754.05 328.97,-747.05"/>
<polygon fill="black" stroke="black" points="524.15,-754.05 534.15,-750.55 524.15,-747.05 524.15,-754.05"/>
</g>
<!-- NodoF1_C1&#45;&gt;NodoF7_C1 -->
<g id="edge5" class="edge">
<title>NodoF1_C1&#45;&gt;NodoF7_C1</title>
<path fill="none" stroke="black" d="M290,-535.8C290,-519.95 290,-502.89 290,-487.03"/>
<polygon fill="black" stroke="black" points="286.5,-535.63 290,-545.63 293.5,-535.63 286.5,-535.63"/>
<polygon fill="black" stroke="black" points="293.5,-487.23 290,-477.23 286.5,-487.23 293.5,-487.23"/>
</g>
<!-- Columna2&#45;&gt;NodoF14_C2 -->
<g id="edge6" class="edge">
<title>Columna2&#45;&gt;NodoF14_C2</title>
<path fill="none" stroke="black" d="M563,-721.29C563,-642.91 563,-421.38 563,-312.49"/>
<polygon fill="black" stroke="black" points="566.5,-312.56 563,-302.56 559.5,-312.56 566.5,-312.56"/>
</g>
<!-- Columna3 -->
<g id="node10" class="node">
<title>Columna3</title>
<polygon fill="white" stroke="black" points="795,-779.35 741,-779.35 741,-721.75 795,-721.75 795,-779.35"/>
<text text-anchor="middle" x="768" y="-745.12" font-family="Times New Roman,serif" font-size="14.00">3</text>
</g>
<!-- Columna2&#45;&gt;Columna3 -->
<g id="edge9" class="edge">
<title>Columna2&#45;&gt;Columna3</title>
<path fill="none" stroke="black" d="M601.68,-750.55C644.18,-750.55 686.68,-750.55 729.18,-750.55"/>
<polygon fill="black" stroke="black" points="601.74,-747.05 591.74,-750.55 601.74,-754.05 601.74,-747.05"/>
<polygon fill="black" stroke="black" points="729.06,-754.05 739.06,-750.55 729.06,-747.05 729.06,-754.05"/>
</g>
<!-- Columna3&#45;&gt;NodoF15_C3 -->
<g id="edge7" class="edge">
<title>Columna3&#45;&gt;NodoF15_C3</title>
<path fill="none" stroke="black" d="M768,-721.47C768,-621.21 768,-279.4 768,-138"/>
<polygon fill="black" stroke="black" points="771.5,-138.07 768,-128.07 764.5,-138.07 771.5,-138.07"/>
</g>
</g>
</svg>
