<?xml version="1.0" encoding="UTF-8" standalone="no"?>
<!DOCTYPE svg PUBLIC "-//W3C//DTD SVG 1.1//EN"
 "http://www.w3.org/Graphics/SVG/1.1/DTD/svg11.dtd">
<!-- Generated by graphviz version 11.0.0 (20240428.1522)
 -->
<!-- Title: G Pages: 1 -->
<svg width="82pt" height="61pt"
 viewBox="0.00 0.00 82.25 60.75" xmlns="http://www.w3.org/2000/svg" xmlns:xlink="http://www.w3.org/1999/xlink">
<g id="graph0" class="graph" transform="scale(1 1) rotate(0) translate(4 56.75)">
<title>G</title>
<polygon fill="white" stroke="none" points="-4,4 -4,-56.75 78.25,-56.75 78.25,4 -4,4"/>
<!-- Nodo -->
<g id="node1" class="node">
<title>Nodo</title>
<path fill="none" stroke="black" d="M32.25,-16.25C32.25,-16.25 62.25,-16.25 62.25,-16.25 68.25,-16.25 74.25,-22.25 74.25,-28.25 74.25,-28.25 74.25,-40.25 74.25,-40.25 74.25,-46.25 68.25,-52.25 62.25,-52.25 62.25,-52.25 32.25,-52.25 32.25,-52.25 26.25,-52.25 20.25,-46.25 20.25,-40.25 20.25,-40.25 20.25,-28.25 20.25,-28.25 20.25,-22.25 26.25,-16.25 32.25,-16.25"/>
<text text-anchor="middle" x="47.25" y="-28.95" font-family="Times New Roman,serif" font-size="14.00"> </text>
<text text-anchor="middle" x="10.12" y="-2.45" font-family="Times New Roman,serif" font-size="14.00">Pila</text>
</g>
</g>
</svg>
